<svg id="Layer_1" data-name="Layer 1" xmlns="http://www.w3.org/2000/svg" viewBox="0 0 135.21 87.09"><defs><style>.cls-1,.cls-3{fill:#fff;}.cls-1,.cls-2{fill-rule:evenodd;}.cls-2{fill:#a92424;}</style></defs><title>sigla_utcluj_white</title><path class="cls-1" d="M124.68,166.53h19.76c1.57,0,2.28.54,2.28,2.06v36.54a20.41,20.41,0,0,1-7.69-1.77V172.2c0-1.28-.73-3.41-2.92-3.44H124.68v-2.23Z" transform="translate(-81 -166.53)"/><path class="cls-2" d="M132.55,199.51a21.78,21.78,0,0,0,3.48,2.18v-28c0-1.49-1.11-2.3-2.67-2.3h-8.7v9.86c0,7.87,2,13.56,7.89,18.23Z" transform="translate(-81 -166.53)"/><path class="cls-1" d="M171.62,166.53H151.86c-1.57,0-2.28.54-2.28,2.06v36.54a20.41,20.41,0,0,0,7.69-1.77V172.2c0-1.28.74-3.41,2.92-3.44h11.43v-2.23Z" transform="translate(-81 -166.53)"/><path class="cls-2" d="M163.75,199.51a21.35,21.35,0,0,1-3.48,2.18v-28c0-1.49,1.11-2.3,2.68-2.3h8.69v9.86c0,7.87-2,13.56-7.89,18.23Z" transform="translate(-81 -166.53)"/><path class="cls-3" d="M104.74,252.35a2.41,2.41,0,0,0,1.71-.53,2.24,2.24,0,0,0,.54-1.66,2.13,2.13,0,0,0-.6-1.61,2.33,2.33,0,0,0-1.67-.57h-.92v4.37Zm.08,1.13H102.4v-6.63h2.38a5.47,5.47,0,0,1,1.56.18,2.9,2.9,0,0,1,1.06.61,3,3,0,0,1,.76,1.11,3.9,3.9,0,0,1,.26,1.45,3.5,3.5,0,0,1-.36,1.61A3,3,0,0,1,107,253a2.62,2.62,0,0,1-.87.38,5.8,5.8,0,0,1-1.31.11Z" transform="translate(-81 -166.53)"/><polygon class="cls-3" points="29.16 86.95 29.16 80.32 30.55 80.32 30.55 86.95 29.16 86.95 29.16 86.95"/><polygon class="cls-3" points="33.99 86.95 32.62 86.95 32.62 80.32 33.94 80.32 36.89 84.56 36.89 80.32 38.26 80.32 38.26 86.95 36.97 86.95 33.99 82.59 33.99 86.95 33.99 86.95"/><path class="cls-3" d="M131.54,248.82h-1.71a1.91,1.91,0,0,0-.72-.58,2.4,2.4,0,0,0-1-.19,2.25,2.25,0,0,0-.82.15,2.17,2.17,0,0,0-1.18,1.13,2,2,0,0,0-.17.81,2.05,2.05,0,0,0,.63,1.53,2.08,2.08,0,0,0,1.54.62,2.35,2.35,0,0,0,.94-.18,1.63,1.63,0,0,0,.68-.53h1.71a3.59,3.59,0,0,1-1.33,1.53,3.75,3.75,0,0,1-2,.51,3.84,3.84,0,0,1-1.49-.29,3.7,3.7,0,0,1-1.21-.85,3.07,3.07,0,0,1-.69-1.07,3.43,3.43,0,0,1-.24-1.28,3.14,3.14,0,0,1,.29-1.32,3.4,3.4,0,0,1,.83-1.13,3.48,3.48,0,0,1,1.15-.72,3.83,3.83,0,0,1,1.37-.24,3.68,3.68,0,0,1,2,.52,3.75,3.75,0,0,1,1.36,1.58Z" transform="translate(-81 -166.53)"/><polygon class="cls-3" points="55.88 86.95 52.26 86.95 52.26 80.32 53.64 80.32 53.64 85.79 55.88 85.79 55.88 86.95 55.88 86.95"/><path class="cls-3" d="M138.37,246.85h1.4v3.83a2.73,2.73,0,0,0,.2,1.24.88.88,0,0,0,1.4,0,2.73,2.73,0,0,0,.2-1.24v-3.83H143v4.21a4.5,4.5,0,0,1-.09,1.05,1.6,1.6,0,0,1-.28.62,2,2,0,0,1-.8.67,3,3,0,0,1-2.26,0,2.14,2.14,0,0,1-.81-.67,1.66,1.66,0,0,1-.27-.59,4.56,4.56,0,0,1-.09-1.08v-4.21Z" transform="translate(-81 -166.53)"/><path class="cls-3" d="M148.38,251.22a6.14,6.14,0,0,1-.07,1,1.67,1.67,0,0,1-.95,1.18,2.21,2.21,0,0,1-1,.21,2,2,0,0,1-1.44-.5,1.89,1.89,0,0,1-.5-1.43h1.38v0a.6.6,0,0,0,.15.44.49.49,0,0,0,.4.16.48.48,0,0,0,.47-.27,2,2,0,0,0,.14-.92v-4.27h1.4v4.37Z" transform="translate(-81 -166.53)"/><polygon class="cls-3" points="71.63 83.91 71.63 84.98 69.1 84.98 69.1 83.91 71.63 83.91 71.63 83.91"/><polygon class="cls-3" points="74.91 86.95 73.54 86.95 73.54 80.32 74.86 80.32 77.81 84.56 77.81 80.32 79.18 80.32 79.18 86.95 77.89 86.95 74.91 82.59 74.91 86.95 74.91 86.95"/><path class="cls-3" d="M165.47,250.86l-.84-2.13-.86,2.13Zm-2.18,1.23-.56,1.39h-1.44l2.77-6.63h1.2l2.73,6.63h-1.5l-.56-1.39Z" transform="translate(-81 -166.53)"/><path class="cls-3" d="M170.57,249.82h.36a1.46,1.46,0,0,0,.9-.24.89.89,0,0,0,0-1.34,1.54,1.54,0,0,0-.92-.22h-.35v1.8Zm0,3.66h-1.4v-6.63h1.77a6.06,6.06,0,0,1,1.07.07,1.66,1.66,0,0,1,.63.22,2,2,0,0,1,.69.73,2,2,0,0,1,.25,1,1.89,1.89,0,0,1-.67,1.52,2.74,2.74,0,0,1-1.82.57h-.52v2.54Z" transform="translate(-81 -166.53)"/><path class="cls-3" d="M176.36,250.11a2,2,0,0,0,.15.8,2.08,2.08,0,0,0,.45.67,2.45,2.45,0,0,0,.74.51,2.26,2.26,0,0,0,2.44-.44,2.06,2.06,0,0,0,.63-1.54,1.9,1.9,0,0,0-.64-1.45,2.16,2.16,0,0,0-1.54-.6,2.24,2.24,0,0,0-1.58.6,1.87,1.87,0,0,0-.65,1.45Zm-1.47,0a3.22,3.22,0,0,1,.16-1,3.25,3.25,0,0,1,.46-.91,3.63,3.63,0,0,1,1.33-1.1,3.9,3.9,0,0,1,1.74-.39A3.74,3.74,0,0,1,180,247a3.62,3.62,0,0,1,1.18.74,3.48,3.48,0,0,1,.82,1.11,3.23,3.23,0,0,1,.27,1.31,3.29,3.29,0,0,1-.26,1.33,3.13,3.13,0,0,1-.77,1.11,3.61,3.61,0,0,1-1.2.78,3.83,3.83,0,0,1-1.43.27,3.92,3.92,0,0,1-1.47-.27,3.51,3.51,0,0,1-1.94-1.89,3.16,3.16,0,0,1-.26-1.31Z" transform="translate(-81 -166.53)"/><path class="cls-3" d="M190.68,248.82H189a2,2,0,0,0-.73-.58,2.37,2.37,0,0,0-.95-.19,2.25,2.25,0,0,0-.82.15,2.19,2.19,0,0,0-.69.44,2.23,2.23,0,0,0-.49.69,2.14,2.14,0,0,0-.17.81,2.05,2.05,0,0,0,.63,1.53,2.08,2.08,0,0,0,1.54.62,2.35,2.35,0,0,0,.94-.18,1.63,1.63,0,0,0,.68-.53h1.71a3.52,3.52,0,0,1-1.33,1.53,3.75,3.75,0,0,1-2,.51,3.79,3.79,0,0,1-1.48-.29,3.74,3.74,0,0,1-1.22-.85,3.39,3.39,0,0,1-.69-1.07,3.43,3.43,0,0,1-.24-1.28,3.14,3.14,0,0,1,.29-1.32,3.7,3.7,0,0,1,.83-1.13A3.52,3.52,0,0,1,186,247a3.78,3.78,0,0,1,1.36-.24,3.48,3.48,0,0,1,3.36,2.1Z" transform="translate(-81 -166.53)"/><path class="cls-3" d="M195.62,250.86l-.84-2.13-.87,2.13Zm-2.19,1.23-.55,1.39h-1.45l2.77-6.63h1.21l2.73,6.63h-1.5l-.56-1.39Z" transform="translate(-81 -166.53)"/><path class="cls-3" d="M81,220.9v-6h4v6a2.86,2.86,0,0,0,.25,1.44.89.89,0,0,0,.84.4.93.93,0,0,0,.85-.41,2.84,2.84,0,0,0,.26-1.43v-6h4v6a10.31,10.31,0,0,1-.15,1.94,3.66,3.66,0,0,1-.49,1.27,4.42,4.42,0,0,1-1.81,1.58,6.47,6.47,0,0,1-5.22,0,4.35,4.35,0,0,1-1.81-1.58,3.6,3.6,0,0,1-.48-1.26A10.28,10.28,0,0,1,81,220.9Z" transform="translate(-81 -166.53)"/><path class="cls-3" d="M94,225.94v-11h3.88l3.42,5.75a6.46,6.46,0,0,1-.1-.84c0-.32,0-.72,0-1.22v-3.69H105v11H101l-3.38-5.71c0,.24.06.51.09.79s0,.6,0,.95v4Z" transform="translate(-81 -166.53)"/><polygon class="cls-3" points="26.84 59.41 26.84 48.41 30.86 48.41 30.86 59.41 26.84 59.41 26.84 59.41"/><path class="cls-3" d="M117.43,225.94l-4.21-11h4.29l1.16,4c.17.58.3,1.07.38,1.47a8.63,8.63,0,0,1,.17,1.13h.07q.08-.56.21-1.17c.1-.41.22-.86.36-1.34l1.23-4.07h4.21l-4.19,11Z" transform="translate(-81 -166.53)"/><polygon class="cls-3" points="45.58 59.41 45.58 48.41 52.94 48.41 52.94 51.39 49.46 51.39 49.46 52.45 52.62 52.45 52.62 55.27 49.46 55.27 49.46 56.43 53.03 56.43 53.03 59.41 45.58 59.41 45.58 59.41"/><path class="cls-3" d="M140.3,217.77v2.15h.62a1.21,1.21,0,0,0,.87-.28,1,1,0,0,0,.3-.78,1.06,1.06,0,0,0-.3-.81,1.21,1.21,0,0,0-.87-.28Zm-3.88,8.17v-11h5a5,5,0,0,1,3.31.95,3.39,3.39,0,0,1,1.14,2.75,3.11,3.11,0,0,1-.57,1.93,2.21,2.21,0,0,1-1.55.89l2.93,4.48h-4.43l-1.93-3.63v3.63Z" transform="translate(-81 -166.53)"/><path class="cls-3" d="M147.24,225l1.26-3.08a7.75,7.75,0,0,0,1.52.87,3.31,3.31,0,0,0,1.24.27,1.14,1.14,0,0,0,.64-.15.47.47,0,0,0,.24-.42c0-.3-.39-.54-1.17-.7l-.59-.13a3.38,3.38,0,0,1-1.88-1.06,2.83,2.83,0,0,1-.66-1.91,3.67,3.67,0,0,1,1.27-2.89,4.89,4.89,0,0,1,3.33-1.11,6.91,6.91,0,0,1,1.87.25,8.17,8.17,0,0,1,1.85.75l-1.2,2.88a4.94,4.94,0,0,0-1.15-.65,3.27,3.27,0,0,0-1.12-.22,1.29,1.29,0,0,0-.64.14.43.43,0,0,0-.22.39c0,.31.55.58,1.65.82l.4.09a3.17,3.17,0,0,1,1.79,1,2.89,2.89,0,0,1,.65,1.91,3.78,3.78,0,0,1-1.31,3,5,5,0,0,1-3.44,1.16,8.05,8.05,0,0,1-2.16-.31,9.93,9.93,0,0,1-2.17-.93Z" transform="translate(-81 -166.53)"/><polygon class="cls-3" points="77.52 59.41 77.52 48.41 81.54 48.41 81.54 59.41 77.52 59.41 77.52 59.41"/><polygon class="cls-3" points="85.89 59.41 85.89 52.01 83.69 52.01 83.69 48.41 92.05 48.41 92.05 52.01 89.84 52.01 89.84 59.41 85.89 59.41 85.89 59.41"/><path class="cls-3" d="M178.28,221.94h1.65l-.34-1.25c-.16-.63-.28-1.11-.34-1.46a8.84,8.84,0,0,1-.11-1h-.07a6.9,6.9,0,0,1-.11,1c-.06.35-.17.83-.34,1.46l-.34,1.25Zm-5.24,4,3.92-11h4.41l3.85,11H181l-.35-1.38h-3l-.34,1.38Z" transform="translate(-81 -166.53)"/><polygon class="cls-3" points="106.42 59.41 106.42 52.01 104.21 52.01 104.21 48.41 112.57 48.41 112.57 52.01 110.37 52.01 110.37 59.41 106.42 59.41 106.42 59.41"/><polygon class="cls-3" points="114.64 59.41 114.64 48.41 122.01 48.41 122.01 51.39 118.53 51.39 118.53 52.45 121.68 52.45 121.68 55.27 118.53 55.27 118.53 56.43 122.1 56.43 122.1 59.41 114.64 59.41 114.64 59.41"/><path class="cls-3" d="M209.28,221.94h1.65l-.34-1.25c-.17-.63-.28-1.11-.34-1.46a6.9,6.9,0,0,1-.11-1h-.07a8.84,8.84,0,0,1-.11,1c-.06.35-.18.83-.34,1.46l-.34,1.25Zm-5.25,4,3.93-11h4.4l3.85,11H212l-.36-1.38h-3l-.34,1.38Z" transform="translate(-81 -166.53)"/><polygon class="cls-3" points="31.64 75.13 31.64 67.72 29.44 67.72 29.44 64.12 37.8 64.12 37.8 67.72 35.59 67.72 35.59 75.13 31.64 75.13 31.64 75.13"/><polygon class="cls-3" points="39.87 75.13 39.87 64.12 47.23 64.12 47.23 67.1 43.75 67.1 43.75 68.16 46.9 68.16 46.9 70.98 43.75 70.98 43.75 72.14 47.32 72.14 47.32 75.13 39.87 75.13 39.87 75.13"/><polygon class="cls-3" points="49.71 75.13 49.71 64.12 53.67 64.12 53.67 67.78 56.09 67.78 56.09 64.12 60.04 64.12 60.04 75.13 56.09 75.13 56.09 71.24 53.67 71.24 53.67 75.13 49.71 75.13 49.71 75.13"/><path class="cls-3" d="M143.92,241.65v-11h3.88l3.42,5.76c0-.26-.07-.54-.09-.85s0-.72,0-1.22v-3.69h3.81v11H151l-3.38-5.71c0,.25.07.51.09.79s0,.6,0,1v4Z" transform="translate(-81 -166.53)"/><polygon class="cls-3" points="76.81 75.13 76.81 64.12 80.83 64.12 80.83 75.13 76.81 75.13 76.81 75.13"/><path class="cls-3" d="M172.86,235a4,4,0,0,0-1.11-.78,2.83,2.83,0,0,0-1.19-.26,2.09,2.09,0,0,0-1.56.6,2.18,2.18,0,0,0-.59,1.59,2.1,2.1,0,0,0,.57,1.55,2,2,0,0,0,1.51.58,3.09,3.09,0,0,0,1.16-.24,6.23,6.23,0,0,0,1.29-.78l-.13,4.14a7.09,7.09,0,0,1-1.29.4,7.16,7.16,0,0,1-1.3.13,6.49,6.49,0,0,1-1.54-.18,5.06,5.06,0,0,1-1.35-.52,5.87,5.87,0,0,1-2.21-2.12,5.76,5.76,0,0,1-.75-3,5.9,5.9,0,0,1,.43-2.28A5.49,5.49,0,0,1,166,232a5.56,5.56,0,0,1,1.9-1.23,6.4,6.4,0,0,1,2.34-.42,6.5,6.5,0,0,1,1.32.14,5.91,5.91,0,0,1,1.27.42V235Z" transform="translate(-81 -166.53)"/><path class="cls-3" d="M179.18,237.65h1.65l-.34-1.24c-.17-.64-.28-1.12-.34-1.47A6.6,6.6,0,0,1,180,234H180a6.6,6.6,0,0,1-.11.95c-.06.35-.17.83-.34,1.47l-.34,1.24Zm-5.25,4,3.93-11h4.41l3.85,11h-4.26l-.35-1.38h-3l-.34,1.38Z" transform="translate(-81 -166.53)"/><polygon class="cls-1" points="96.6 61.13 101.1 61.13 101.1 62.46 96.6 62.46 96.6 61.13 96.6 61.13"/></svg>